<svg xmlns="http://www.w3.org/2000/svg" version="1.1" xmlns:xlink="http://www.w3.org/1999/xlink" width="512" height="512" x="0" y="0" viewBox="0 0 682.667 682.667" style="enable-background:new 0 0 512 512" xml:space="preserve" class=""><circle r="341.3335" cx="341.3335" cy="341.3335" fill="#ed4d1b" shape="circle" transform="matrix(1,0,0,1,0,0)"></circle><g transform="matrix(0.7,0,0,0.7,102.39951381683352,102.40061502456666)"><defs stroke-width="12" style="stroke-width: 12;"><clipPath id="a" clipPathUnits="userSpaceOnUse" stroke-width="12" style="stroke-width: 12;"><path d="M0 512h512V0H0Z" fill="#000000" opacity="1" data-original="#000000" stroke-width="12" style="stroke-width: 12;" class=""></path></clipPath></defs><g clip-path="url(#a)" transform="matrix(1.33333 0 0 -1.33333 0 682.667)" stroke-width="12" style="stroke-width: 12;"><path d="m0 0 104.941-97.957" style="stroke-width: 12; stroke-linecap: round; stroke-linejoin: round; stroke-miterlimit: 10; stroke-dasharray: none; stroke-opacity: 1;" transform="translate(392.767 312.02)" fill="none" stroke="#000000" stroke-width="12" stroke-linecap="round" stroke-linejoin="round" stroke-miterlimit="10" stroke-dasharray="none" stroke-opacity="" data-original="#000000" class="" opacity="1"></path><path d="M0 0c-.004-4.666 3.75-8.487 8.415-8.492h32.327a8.447 8.447 0 0 1 8.455 8.44l.036 26.895c.004 4.665-3.774 8.541-8.439 8.545H0Z" style="stroke-width: 12; stroke-linecap: round; stroke-linejoin: round; stroke-miterlimit: 10; stroke-dasharray: none; stroke-opacity: 1;" transform="translate(64.204 449.847)" fill="none" stroke="#000000" stroke-width="12" stroke-linecap="round" stroke-linejoin="round" stroke-miterlimit="10" stroke-dasharray="none" stroke-opacity="" data-original="#000000" class="" opacity="1"></path><path d="m0 0 11.584-15.398c2.117-3.773 6.105-6.14 10.432-6.144h27.15V8.599H5.04C.624 8.603-2.161 3.85 0 0Z" style="stroke-width: 12; stroke-linecap: round; stroke-linejoin: round; stroke-miterlimit: 10; stroke-dasharray: none; stroke-opacity: 1;" transform="translate(15.038 476.636)" fill="none" stroke="#000000" stroke-width="12" stroke-linecap="round" stroke-linejoin="round" stroke-miterlimit="10" stroke-dasharray="none" stroke-opacity="" data-original="#000000" class="" opacity="1"></path><path d="m0 0 24.289 2.052M0 0l-44.756-3.78" style="stroke-width: 12; stroke-linecap: round; stroke-linejoin: round; stroke-miterlimit: 10; stroke-dasharray: none; stroke-opacity: 1;" transform="translate(253.526 398.13)" fill="none" stroke="#000000" stroke-width="12" stroke-linecap="round" stroke-linejoin="round" stroke-miterlimit="10" stroke-dasharray="none" stroke-opacity="" data-original="#000000" class="" opacity="1"></path><path d="m0 0 1.361-16.109" style="stroke-width: 12; stroke-linecap: round; stroke-linejoin: round; stroke-miterlimit: 10; stroke-dasharray: none; stroke-opacity: 1;" transform="translate(278.215 408.328)" fill="none" stroke="#000000" stroke-width="12" stroke-linecap="round" stroke-linejoin="round" stroke-miterlimit="10" stroke-dasharray="none" stroke-opacity="" data-original="#000000" class="" opacity="1"></path><path d="m0 0 24.482 2.068" style="stroke-width: 12; stroke-linecap: round; stroke-linejoin: round; stroke-miterlimit: 10; stroke-dasharray: none; stroke-opacity: 1;" transform="translate(259.106 356.707)" fill="none" stroke="#000000" stroke-width="12" stroke-linecap="round" stroke-linejoin="round" stroke-miterlimit="10" stroke-dasharray="none" stroke-opacity="" data-original="#000000" class="" opacity="1"></path><path d="m0 0 1.361-16.109" style="stroke-width: 12; stroke-linecap: round; stroke-linejoin: round; stroke-miterlimit: 10; stroke-dasharray: none; stroke-opacity: 1;" transform="translate(283.987 366.921)" fill="none" stroke="#000000" stroke-width="12" stroke-linecap="round" stroke-linejoin="round" stroke-miterlimit="10" stroke-dasharray="none" stroke-opacity="" data-original="#000000" class="" opacity="1"></path><path d="m0 0 24.687 2.085" style="stroke-width: 12; stroke-linecap: round; stroke-linejoin: round; stroke-miterlimit: 10; stroke-dasharray: none; stroke-opacity: 1;" transform="translate(264.675 315.284)" fill="none" stroke="#000000" stroke-width="12" stroke-linecap="round" stroke-linejoin="round" stroke-miterlimit="10" stroke-dasharray="none" stroke-opacity="" data-original="#000000" class="" opacity="1"></path><path d="m0 0 1.36-16.109" style="stroke-width: 12; stroke-linecap: round; stroke-linejoin: round; stroke-miterlimit: 10; stroke-dasharray: none; stroke-opacity: 1;" transform="translate(289.76 325.515)" fill="none" stroke="#000000" stroke-width="12" stroke-linecap="round" stroke-linejoin="round" stroke-miterlimit="10" stroke-dasharray="none" stroke-opacity="" data-original="#000000" class="" opacity="1"></path><path d="m0 0 24.88 2.102" style="stroke-width: 12; stroke-linecap: round; stroke-linejoin: round; stroke-miterlimit: 10; stroke-dasharray: none; stroke-opacity: 1;" transform="translate(270.254 273.86)" fill="none" stroke="#000000" stroke-width="12" stroke-linecap="round" stroke-linejoin="round" stroke-miterlimit="10" stroke-dasharray="none" stroke-opacity="" data-original="#000000" class="" opacity="1"></path><path d="m0 0 1.361-16.109" style="stroke-width: 12; stroke-linecap: round; stroke-linejoin: round; stroke-miterlimit: 10; stroke-dasharray: none; stroke-opacity: 1;" transform="translate(295.533 284.108)" fill="none" stroke="#000000" stroke-width="12" stroke-linecap="round" stroke-linejoin="round" stroke-miterlimit="10" stroke-dasharray="none" stroke-opacity="" data-original="#000000" class="" opacity="1"></path><path d="m0 0 25.073 2.118" style="stroke-width: 12; stroke-linecap: round; stroke-linejoin: round; stroke-miterlimit: 10; stroke-dasharray: none; stroke-opacity: 1;" transform="translate(275.834 232.438)" fill="none" stroke="#000000" stroke-width="12" stroke-linecap="round" stroke-linejoin="round" stroke-miterlimit="10" stroke-dasharray="none" stroke-opacity="" data-original="#000000" class="" opacity="1"></path><path d="m0 0 1.361-16.109" style="stroke-width: 12; stroke-linecap: round; stroke-linejoin: round; stroke-miterlimit: 10; stroke-dasharray: none; stroke-opacity: 1;" transform="translate(301.306 242.702)" fill="none" stroke="#000000" stroke-width="12" stroke-linecap="round" stroke-linejoin="round" stroke-miterlimit="10" stroke-dasharray="none" stroke-opacity="" data-original="#000000" class="" opacity="1"></path><path d="m0 0 25.267 2.134M0 0l-57.663-4.871" style="stroke-width: 12; stroke-linecap: round; stroke-linejoin: round; stroke-miterlimit: 10; stroke-dasharray: none; stroke-opacity: 1;" transform="translate(281.413 191.015)" fill="none" stroke="#000000" stroke-width="12" stroke-linecap="round" stroke-linejoin="round" stroke-miterlimit="10" stroke-dasharray="none" stroke-opacity="" data-original="#000000" class="" opacity="1"></path><path d="m0 0 1.36-16.109" style="stroke-width: 12; stroke-linecap: round; stroke-linejoin: round; stroke-miterlimit: 10; stroke-dasharray: none; stroke-opacity: 1;" transform="translate(307.08 201.295)" fill="none" stroke="#000000" stroke-width="12" stroke-linecap="round" stroke-linejoin="round" stroke-miterlimit="10" stroke-dasharray="none" stroke-opacity="" data-original="#000000" class="" opacity="1"></path><path d="M0 0c-10.602 5.763-23.269 7.859-36.033 4.862C-53.023.873-68.164-7.887-77.577-14.275c-7.147-4.85-15.56-7.494-24.195-7.494h-3.436l-.036-26.709v-.006h4.084c15.664 0 31.116 3.988 44.649 11.877 11.291 6.581 26.087 12.153 36.935 5.167z" style="stroke-width: 12; stroke-linecap: round; stroke-linejoin: round; stroke-miterlimit: 10; stroke-dasharray: none; stroke-opacity: 1;" transform="translate(218.645 498.272)" fill="none" stroke="#000000" stroke-width="12" stroke-linecap="round" stroke-linejoin="round" stroke-miterlimit="10" stroke-dasharray="none" stroke-opacity="" data-original="#000000" class="" opacity="1"></path><path d="M0 0c0-11.782-9.551-21.333-21.333-21.333-11.782 0-21.333 9.551-21.333 21.333 0 11.782 9.551 21.333 21.333 21.333C-9.551 21.333 0 11.782 0 0Z" style="stroke-width: 12; stroke-linecap: round; stroke-linejoin: round; stroke-miterlimit: 10; stroke-dasharray: none; stroke-opacity: 1;" transform="translate(357.494 141.882)" fill="none" stroke="#000000" stroke-width="12" stroke-linecap="round" stroke-linejoin="round" stroke-miterlimit="10" stroke-dasharray="none" stroke-opacity="" data-original="#000000" class="" opacity="1"></path><path d="m0 0 26.765-20.277C39.144-2.312 56.29 12.493 79.889 21.059l-86.535 80.776c-24.373-13.438-40.608-34.356-51.307-57.929l29.998-22.727" style="stroke-width: 12; stroke-linecap: round; stroke-linejoin: round; stroke-miterlimit: 10; stroke-dasharray: none; stroke-opacity: 1;" transform="translate(409.049 201.192)" fill="none" stroke="#000000" stroke-width="12" stroke-linecap="round" stroke-linejoin="round" stroke-miterlimit="10" stroke-dasharray="none" stroke-opacity="" data-original="#000000" class="" opacity="1"></path><path d="M0 0c9.811 40.177 31.356 78.927 76.162 95.191l-86.535 80.776c-51.601-28.451-66.763-90.406-70.003-140.163 1.224.217 2.476.351 3.762.351 11.782 0 21.334-9.551 21.334-21.333 0-11.782-9.552-21.334-21.334-21.334-1.384 0-2.735.143-4.045.395.165-3.368.363-6.525.578-9.431.818-11.062-7.296-21.035-18.35-21.95-10.743-.888-20.192 6.793-21.616 17.363l-47.489 352.782c-4.048 30.071-33.087 50.363-62.627 43.427-16.99-3.989-32.131-12.749-41.544-19.137-7.147-4.849-15.56-7.493-24.195-7.493h-3.436l-.036-26.71v-.005h4.084c15.664 0 31.116 3.988 44.649 11.876 18.52 10.794 46.468 18.874 50.958-26.718 4.818-48.914 16.543-243.486 26.978-352.036 4.111-42.771 40.046-75.41 83.014-75.41 43.742 0 79.83 33.812 83.18 77.426.193 2.509.419 5.044.68 7.599" style="stroke-width: 12; stroke-linecap: round; stroke-linejoin: round; stroke-miterlimit: 10; stroke-dasharray: none; stroke-opacity: 1;" transform="translate(412.775 127.06)" fill="none" stroke="#000000" stroke-width="12" stroke-linecap="round" stroke-linejoin="round" stroke-miterlimit="10" stroke-dasharray="none" stroke-opacity="" data-original="#000000" class="" opacity="1"></path></g></g></svg>